PathFileType	4	(X/Y/Z)	/Users/niels/Desktop/University/Third Semester/Perception and Action/Exam/Gymnastics Motion Tracking/Code for Gym Tracking/Analyzed Data/Webcam_Backflip/id9_2_trajectory_Sports2D/id9_2_trajectory_Sports2D_px_person00.trc
DataRate	CameraRate	NumFrames	NumMarkers	Units	OrigDataRate	OrigDataStartFrame	OrigNumFrames
29.714285714285715	29.714285714285715	7	22	m	29.714285714285715	78	105
Frame#	Time	Hip			RHip			RKnee			RAnkle			RBigToe			RSmallToe			RHeel			LHip			LKnee			LAnkle			LBigToe			LSmallToe			LHeel			Neck			Head			Nose			RShoulder			RElbow			RWrist			LShoulder			LElbow			LWrist		
		X1	Y1	Z1	X2	Y2	Z2	X3	Y3	Z3	X4	Y4	Z4	X5	Y5	Z5	X6	Y6	Z6	X7	Y7	Z7	X8	Y8	Z8	X9	Y9	Z9	X10	Y10	Z10	X11	Y11	Z11	X12	Y12	Z12	X13	Y13	Z13	X14	Y14	Z14	X15	Y15	Z15	X16	Y16	Z16	X17	Y17	Z17	X18	Y18	Z18	X19	Y19	Z19	X20	Y20	Z20	X21	Y21	Z21	X22	Y22	Z22
78	2.625	0.6882989051943665	-0.5783127326979883	0.0	0.6292772632468036	-0.5803893924938265	0.0	0.5894203280150074	-0.8425377971504692	0.0	0.5628359823806236	-1.0633588535219143	0.0	0.5892274392436091	-1.0878685126961967	0.0	0.5480389567743236	-1.0911556527479462	0.0	0.558003735674119	-1.078030247565112	0.0	0.7452847909593447	-0.583922416955249	0.0	0.818567250515609	-0.8114447743629544	0.0	0.830125554160562	-1.0323860240032483	0.0	0.9109462281035229	-1.0649466080674277	0.0	0.9091241028154243	-1.052306384796496	0.0	0.8167923018585177	-1.0585875996598453	0.0	0.7132259631547162	-0.2127831725435438	0.0	0.7271375539594339	-0.05626975582392696	0.0	0.7422501901998859	-0.14339688737948866	0.0	0.6013325777329598	-0.2638087581611183	0.0	0.5403520898091755	-0.44502369643836376	0.0	0.5467429963755603	-0.6030325008649645	0.0	0.8007986691265884	-0.28928502111497834	0.0	0.8208918972253043	-0.4555424642249663	0.0	0.8577884960529552	-0.5881475128494849	0.0
79	2.658653846153846	0.6804478345618306	-0.5763498248214142	0.0	0.6201314092072693	-0.5790143309835087	0.0	0.5833597404490908	-0.8427199052878099	0.0	0.563711512885583	-1.0644351995673629	0.0	0.5936452359821361	-1.0909102906569759	0.0	0.551880301461247	-1.0933676145410267	0.0	0.5602878779818325	-1.0790355627658832	0.0	0.7384213279732688	-0.581956136332548	0.0	0.8050187135011351	-0.8133297376710923	0.0	0.7998366753064988	-1.0337807339670964	0.0	0.8706735530065705	-1.0730298251660628	0.0	0.8713879808325068	-1.0596289801565713	0.0	0.783517295061163	-1.0576846931536898	0.0	0.6997364786864891	-0.206618088710517	0.0	0.7088537001191462	-0.04948118025719766	0.0	0.72473429061097	-0.13525416269695315	0.0	0.584984303417887	-0.2589702281620075	0.0	0.5259247188605459	-0.44115839584893496	0.0	0.5360576615741733	-0.5973396268206118	0.0	0.7933681913171271	-0.2844504537112262	0.0	0.8198594369536646	-0.4518740383630612	0.0	0.8639542836162828	-0.5840154027558441	0.0
80	2.692307692307692	0.6734089390962656	-0.5750830138369287	0.0	0.6119068075425773	-0.578287933567551	0.0	0.5780450649639725	-0.8430558767241259	0.0	0.563937295900129	-1.06516365239829	0.0	0.5979546140768192	-1.0930508140393664	0.0	0.5561027595475021	-1.095089116534809	0.0	0.5609152248531568	-1.079621365887236	0.0	0.7318527087561458	-0.5805942279656088	0.0	0.7891999404847441	-0.8172189852236225	0.0	0.7717498070600265	-1.037247675809502	0.0	0.8325840690545667	-1.079095760734774	0.0	0.8358633803532317	-1.065760359104855	0.0	0.7538584638642317	-1.058612734256007	0.0	0.6877855401359366	-0.2010424713089261	0.0	0.6925140762757489	-0.043565112356478856	0.0	0.7093292327250453	-0.12814630052688739	0.0	0.5707383309210201	-0.2556509092033352	0.0	0.5139346806311523	-0.43890562056718163	0.0	0.5250926303454311	-0.5941494126392312	0.0	0.7862155655915333	-0.2799117052444142	0.0	0.8177435012900895	-0.44778758823719444	0.0	0.8683958319218903	-0.5777273255607549	0.0
81	2.7259615384615383	0.666865934039277	-0.5744226722386038	0.0	0.6042682640202316	-0.5783036313845237	0.0	0.5736687686091196	-0.8439031744231102	0.0	0.564227713559008	-1.0656972135792089	0.0	0.6010878861903352	-1.0940350643529362	0.0	0.5593088851754808	-1.09611009638935	0.0	0.560882584285373	-1.0798650790097775	0.0	0.725400908724434	-0.5798071045310482	0.0	0.7719187975154205	-0.822926686044619	0.0	0.7475160043189657	-1.043250070984685	0.0	0.7988881247364695	-1.0832710184809111	0.0	0.8045828943659218	-1.0708924373239534	0.0	0.7296985559097576	-1.06174144497871	0.0	0.6772320295051422	-0.1960908452537106	0.0	0.6780856563337098	-0.038496128504754326	0.0	0.6959789612308519	-0.12208287563392169	0.0	0.5583761951957928	-0.2537553466032079	0.0	0.5038058890769106	-0.43831964519622496	0.0	0.5140689523406268	-0.5937523177224275	0.0	0.7795289924905688	-0.27586539374838276	0.0	0.8146215664942377	-0.4435623875112038	0.0	0.8706765465118428	-0.5697303504275814	0.0
82	2.7596153846153846	0.6606347194091611	-0.5742985553186825	0.0	0.5970583811245087	-0.579071368123443	0.0	0.57038397170617	-0.8455927506147413	0.0	0.5653166731193383	-1.0661476805593482	0.0	0.6029954333037547	-1.0938387837870378	0.0	0.5613781861142574	-1.0963572322870287	0.0	0.5612456178630522	-1.0798031312314664	0.0	0.7191469282425184	-0.5795076930114726	0.0	0.7543218120723857	-0.8299485373149499	0.0	0.7279040430383179	-1.0513745633460196	0.0	0.7706994268667937	-1.0858481389516579	0.0	0.7785878018059145	-1.075118350278131	0.0	0.7113971571998625	-1.066532476870475	0.0	0.6679850757216726	-0.19177677418566835	0.0	0.6655938075630543	-0.03412636050849891	0.0	0.6846081469828437	-0.11693308408026364	0.0	0.5476644967532829	-0.2530057971109189	0.0	0.49504391698311107	-0.4392497764939709	0.0	0.5033869926009478	-0.5958867511809847	0.0	0.7735341403253969	-0.2724215547658055	0.0	0.8107873544088692	-0.43942434607846703	0.0	0.8707581524515821	-0.5606412100110612	0.0
83	2.793269230769231	0.6546814659398151	-0.5746059798466243	0.0	0.5902236422474655	-0.5804526317519406	0.0	0.5682936528215066	-0.8481674016943671	0.0	0.5676185289611716	-1.0664157989270655	0.0	0.6040238223781076	-1.092681862556685	0.0	0.5629085077000023	-1.0957951801883317	0.0	0.5627205373723654	-1.0792767704310453	0.0	0.713325577830016	-0.5795263631898809	0.0	0.7375871369333219	-0.8375957576805093	0.0	0.712813580934431	-1.0603100002294812	0.0	0.7484833178666983	-1.087227742571483	0.0	0.7582409895237329	-1.0783229504602132	0.0	0.6982283646582924	-1.0717201142702968	0.0	0.6600070358656255	-0.18806192669010416	0.0	0.6550758089009399	-0.03025999691052568	0.0	0.6750787891087217	-0.11253248339617544	0.0	0.5383252752524235	-0.25303882210481066	0.0	0.4872844128887535	-0.44134449184349617	0.0	0.49356625152890604	-0.5999826656724238	0.0	0.7684415347511788	-0.2696198443172933	0.0	0.8066809839360326	-0.43560658438415933	0.0	0.8690078508582447	-0.5513349597255408	0.0
84	2.8269230769230766	0.6491012814341849	-0.5751871769877105	0.0	0.5838091013120215	-0.5821872208112623	0.0	0.5674195787689669	-0.8514832834832482	0.0	0.5710944573234854	-1.0661519079504058	0.0	0.6045590972314551	-1.0908695942693427	0.0	0.5645535986511857	-1.094326929803823	0.0	0.5654236776441627	-1.0779426973638513	0.0	0.7081876995874129	-0.5796326806341136	0.0	0.7225726693135486	-0.8452723031395168	0.0	0.7014600872434824	-1.0684579744604155	0.0	0.7320258703823428	-1.0878075392127062	0.0	0.7431596472482505	-1.0802961598838141	0.0	0.6889102074615154	-1.0759275393531431	0.0	0.6532426841274857	-0.18489698767443033	0.0	0.6464867062077126	-0.026685051533053852	0.0	0.6671802358464904	-0.10879949339383944	0.0	0.5300725857731782	-0.25347917702658934	0.0	0.4803185704632142	-0.444105795971715	0.0	0.48505982820138305	-0.6053904350476873	0.0	0.7643331144243298	-0.26739674403604585	0.0	0.802736666443996	-0.43234834250475435	0.0	0.8660485163166968	-0.5429252925119593	0.0
